<svg id="Layer_1" data-name="Layer 1" xmlns="http://www.w3.org/2000/svg" width="68mm" height="37mm" viewBox="0 0 192.76 104.88"><title>sonoff_basic_R2</title><g id="background"><g id="background-2" data-name="background"><path d="M192.76,104.88H0V9L12.8,9V0h180ZM160,99.4a1.58,1.58,0,1,0-1.58-1.58A1.58,1.58,0,0,0,160,99.4Zm-7.2,0a1.58,1.58,0,1,0-1.58-1.58A1.58,1.58,0,0,0,152.77,99.4Zm-7.2,0A1.58,1.58,0,1,0,144,97.82,1.58,1.58,0,0,0,145.57,99.4Zm-7.2,0a1.59,1.59,0,1,0-1.58-1.58A1.58,1.58,0,0,0,138.37,99.38ZM147,25a1.59,1.59,0,1,0-1.59-1.59A1.59,1.59,0,0,0,147,25Zm-7.2,0a1.59,1.59,0,1,0-1.59-1.59A1.59,1.59,0,0,0,139.75,25Zm-7.2,0A1.59,1.59,0,1,0,131,23.4,1.59,1.59,0,0,0,132.55,25Zm-7.2,0a1.59,1.59,0,1,0-1.59-1.59A1.59,1.59,0,0,0,125.35,25Z" fill="#3eaf69"/></g><g id="Copper2"><path d="M165.14,102.35H133.2V93.29h31.94Zm-31.44-.5h30.94V93.79H133.7Z" fill="#c7c6c6"/><g id="connector8pin"><path d="M160,99.65a1.83,1.83,0,1,1,1.83-1.83A1.83,1.83,0,0,1,160,99.65Zm0-3.16a1.33,1.33,0,1,0,1.33,1.33A1.32,1.32,0,0,0,160,96.49Z" fill="#c7c6c6"/></g><g id="connector7pin"><path d="M152.77,99.65a1.83,1.83,0,1,1,1.83-1.83A1.83,1.83,0,0,1,152.77,99.65Zm0-3.16a1.33,1.33,0,1,0,1.33,1.33A1.32,1.32,0,0,0,152.77,96.49Z" fill="#c7c6c6"/></g><g id="connector6pin"><path d="M145.57,99.65a1.83,1.83,0,1,1,1.83-1.83A1.83,1.83,0,0,1,145.57,99.65Zm0-3.16a1.33,1.33,0,1,0,1.33,1.33A1.32,1.32,0,0,0,145.57,96.49Z" fill="#c7c6c6"/></g><g id="connector5pin"><path d="M136.79,97.8a1.58,1.58,0,1,1,1.58,1.58A1.58,1.58,0,0,1,136.79,97.8ZM141,95.19h-5.26v5.26H141Z" fill="#c7c6c6"/></g></g><g id="Copper1"><path d="M152.12,27.93H120.18V18.87h31.94Zm-31.44-.5h30.94V19.37H120.68Z" fill="#c7c6c6"/><g id="connector4pin"><path d="M145.36,23.4A1.59,1.59,0,1,1,147,25,1.59,1.59,0,0,1,145.36,23.4Zm4.21-2.6h-5.25v5.25h5.25Z" fill="#c7c6c6"/></g><g id="connector5pin-2" data-name="connector5pin"><path d="M139.75,25.24a1.84,1.84,0,1,1,1.83-1.84A1.84,1.84,0,0,1,139.75,25.24Zm0-3.17a1.34,1.34,0,1,0,1.33,1.33A1.34,1.34,0,0,0,139.75,22.07Z" fill="#c7c6c6"/></g><g id="connector2pin"><path d="M132.55,25.24a1.84,1.84,0,1,1,1.83-1.84A1.84,1.84,0,0,1,132.55,25.24Zm0-3.17a1.34,1.34,0,1,0,1.33,1.33A1.34,1.34,0,0,0,132.55,22.07Z" fill="#c7c6c6"/></g><g id="connector1pin"><path d="M125.35,25.24a1.84,1.84,0,1,1,1.83-1.84A1.84,1.84,0,0,1,125.35,25.24Zm0-3.17a1.34,1.34,0,1,0,1.33,1.33A1.34,1.34,0,0,0,125.35,22.07Z" fill="#c7c6c6"/></g></g><g id="Text2"><text transform="matrix(0, -0.96, 1, 0, 162.47, 91)" font-size="5.22" fill="#fff" font-family="OCRAStd, OCR A Std">GND</text><text transform="matrix(0, -0.96, 1, 0, 154.95, 91)" font-size="5.22" fill="#fff" font-family="OCRAStd, OCR A Std">TX</text><text transform="matrix(0, -0.96, 1, 0, 147.42, 91)" font-size="5.22" fill="#fff" font-family="OCRAStd, OCR A Std">RX</text><text transform="matrix(0, -0.96, 1, 0, 139.9, 91)" font-size="5.22" fill="#fff" font-family="OCRAStd, OCR A Std">3V3</text></g><g id="Text1"><text transform="matrix(0, -0.96, 1, 0, 148.99, 16.67)" font-size="5.22" fill="#fff" font-family="OCRAStd, OCR A Std">3V3</text><text transform="matrix(0, -0.96, 1, 0, 141.47, 16.67)" font-size="5.22" fill="#fff" font-family="OCRAStd, OCR A Std">KEY</text><text transform="matrix(0, -0.96, 1, 0, 133.95, 16.67)" font-size="5.22" fill="#fff" font-family="OCRAStd, OCR A Std">LED</text><text transform="matrix(0, -0.96, 1, 0, 126.42, 16.67)" font-size="5.22" fill="#fff" font-family="OCRAStd, OCR A Std">GND</text></g></g></svg>